# xmcd
#
# Track frame offsets:
#	150
#	13647
#	28545
#	43223
#	57177
#	71953
#	87655
#	102079
#	117188
#	128775
#
# Disc length: 1902 seconds
#
# Revision: 0
# Processed by: cddbd v1.5.2PL0 Copyright (c) Steve Scherf et al.
# Submitted via: EasyCDDAExtractor 16.0.6.1
#
DISCID=88076c0a
DTITLE=Συλλογικός δίσκος - Λαϊκό τραγούδι 1954-1967, 1965-3
DYEAR=2008
DGENRE=Λαϊκή
TTITLE0=Μοσχολιού Βίκυ - Δεν ξέρω πόσο σ' αγαπώ [Απόστολος Καλδάρας-Χρ. Αργυρό
TTITLE0=πουλος]
TTITLE1=Διαμάντη Λίτσα-Χατζηαντωνίου Σωτήρης - Συννεφιές [Γιώργος Μητσάκης]
TTITLE2=Γαβαλάς Πάνος-Κούρτη Ρία - Αντίο αγάπη μου [Γιάννης Καραμπεσίνης]
TTITLE3=Καζαντζίδης Στέλιος-Μαρινέλλα - Νέοι και γέροι ναυτικοί [Στέλιος Καζαν
TTITLE3=τζίδης-Στέφανος Βαρτάνης]
TTITLE4=Περπινιάδης Βαγγέλης-Μάριος - Στ' Αποστόλη το κουτούκι [Απόστολος Καλδ
TTITLE4=άρας-Ευτυχία Παπαγιαννοπούλου]
TTITLE5=Αγγελόπουλος Μανώλης-Δημητρίου Φούλη - Ρίξτε στο γυαλί φαρμάκι [Απόστο
TTITLE5=λος Καλδάρας-Ευτυχία Παπαγιαννοπούλου]
TTITLE6=Δημητρίου Φούλη - Φεύγεις καλέ μου [Απόστολος Καλδάρας]
TTITLE7=Γαβαλάς Πάνος - Δεν περίμενα από εσένα, να τιμωρηθώ [Πάνος Γαβαλάς-Βασ
TTITLE7=ίλης Βασιλειάδης]
TTITLE8=Καζαντζίδης Στέλιος-Μαρινέλλα - Στην καλύβα την δική μου [Γιώργος Μητσ
TTITLE8=άκης]
TTITLE9=Διονυσίου Στράτος - Όλα τα επαγγέλματα έχουν τα βάσανά τους [Νίκος Δαλ
TTITLE9=έζιος-Λεονάρ. Μπουρνέλης]
EXTD=
EXTT0=
EXTT1=
EXTT2=
EXTT3=
EXTT4=
EXTT5=
EXTT6=
EXTT7=
EXTT8=
EXTT9=
PLAYORDER=
